<?xml version="1.0" encoding="UTF-8"?>
<svg version="1.1" xmlns="http://www.w3.org/2000/svg" width="258" height="258">
<path d="M0 0 C85.14 0 170.28 0 258 0 C258 85.14 258 170.28 258 258 C172.86 258 87.72 258 0 258 C0 172.86 0 87.72 0 0 Z " fill="#FEFEFD" transform="translate(0,0)"/>
<path d="M0 0 C5.75 1.625 5.75 1.625 8 5 C8.21314985 8.4103976 8.084894 10.74531799 7 14 C8.14698941 16.58443092 9.35124492 19.01669666 10.6875 21.5 C19.29025798 38.11913459 19.29025798 38.11913459 19 48 C17.44539063 48.48919922 17.44539063 48.48919922 15.859375 48.98828125 C14.4894532 49.42928347 13.11966867 49.87071223 11.75 50.3125 C10.72712891 50.63250977 10.72712891 50.63250977 9.68359375 50.95898438 C5.96199871 52.16940606 2.95376839 53.40403345 0 56 C0.165 56.9075 0.33 57.815 0.5 58.75 C1.78255693 68.22560717 1.63372697 76.44542713 -3 85 C-3.49886719 85.6496875 -3.99773437 86.299375 -4.51171875 86.96875 C-6.1065218 88.94173152 -6.1065218 88.94173152 -6.83984375 91.36328125 C-8.41017262 94.93221051 -10.89062326 97.41965246 -13.5625 100.1875 C-14.65155305 101.3406631 -15.74009004 102.49431377 -16.828125 103.6484375 C-17.63540039 104.49873535 -17.63540039 104.49873535 -18.45898438 105.36621094 C-20.61277068 107.64966118 -22.71552033 109.9768985 -24.8125 112.3125 C-25.53179687 113.11171875 -26.25109375 113.9109375 -26.9921875 114.734375 C-28.26312404 116.16850573 -29.52027283 117.61507811 -30.7578125 119.078125 C-33.81718053 122.69244817 -36.91139219 125.79171373 -40.5625 128.8125 C-55.15065735 141.72080893 -65.4563298 160.64461935 -75.53125 177.125 C-84.99463584 192.50102054 -84.99463584 192.50102054 -92.23046875 194.66796875 C-92.81441406 194.77753906 -93.39835937 194.88710937 -94 195 C-94 195.66 -94 196.32 -94 197 C-106.5464225 202.88113555 -126.29845025 201.56967937 -139 197 C-150.18421053 192.81578947 -150.18421053 192.81578947 -153 190 C-153.21358801 186.15541573 -153.17881287 182.68379022 -152 179 C-154.49505992 179.25675913 -154.49505992 179.25675913 -157 181 C-157.78146157 183.02949297 -157.78146157 183.02949297 -158.3125 185.4375 C-160.16319344 192.78678549 -164.65684629 199.77123086 -171 204 C-173.625 204.1875 -173.625 204.1875 -176 204 C-176.33 203.67 -176.66 203.34 -177 203 C-176.75375586 194.17309482 -173.93443296 186.55559209 -170.21875 178.6484375 C-169.41180817 176.89489084 -168.660285 175.11468211 -167.96875 173.3125 C-166.55285504 169.9326217 -165.23345681 168.75145577 -162 167 C-157.20550661 166.88344019 -152.61736908 167.77367796 -148 169 C-147.67 168.34 -147.34 167.68 -147 167 C-140.20839198 167.72701495 -134.02096353 169.76681046 -127.55859375 171.91601562 C-119.38965188 174.59716608 -119.38965188 174.59716608 -111 174 C-108.58726781 171.8212928 -107.30449949 169.26510184 -105.875 166.375 C-105.4610498 165.60534912 -105.04709961 164.83569824 -104.62060547 164.04272461 C-103.37847474 161.71162561 -102.18665813 159.35971705 -101 157 C-100.31973108 155.70076182 -99.63758653 154.40250309 -98.953125 153.10546875 C-94.57648999 144.62340046 -90.70843266 136.3188015 -88.5625 127 C-87.3825459 121.97713528 -85.61808514 117.76205916 -83.17578125 113.23046875 C-81.8570356 110.84236081 -81.8570356 110.84236081 -80.6875 107.5 C-76.39839346 98.60407532 -69.45701205 92.3427182 -61.92456055 86.19848633 C-57.94095036 82.9329137 -54.34394788 79.68789576 -52 75 C-51.66666667 71.5 -51.66666667 71.5 -52 68 C-55.73939003 65.50707331 -58.67281504 65.48998188 -63 66 C-68.35587747 67.7247741 -71.13546758 70.02668815 -75 74 C-76.81951463 75.74370152 -78.65306972 77.47286388 -80.5 79.1875 C-81.4178125 80.04730469 -82.335625 80.90710938 -83.28125 81.79296875 C-85.84074902 83.87072298 -87.88868719 84.99107791 -91 86 C-91 89.3 -91 92.6 -91 96 C-91.66 96 -92.32 96 -93 96 C-93.69040574 97.65697379 -94.3530635 99.3255761 -95 101 C-95.4640625 101.9590625 -95.4640625 101.9590625 -95.9375 102.9375 C-96.2440239 105.36012282 -96.2440239 105.36012282 -93.5625 107.8125 C-93.08941406 108.25207031 -92.61632812 108.69164063 -92.12890625 109.14453125 C-90.28547592 112.17439079 -90.58805072 114.54337105 -91 118 C-92.80078125 120.5546875 -92.80078125 120.5546875 -95.3125 122.875 C-96.22 123.71933594 -97.1275 124.56367188 -98.0625 125.43359375 C-114.63489727 139.9124036 -114.63489727 139.9124036 -120.375 140.125 C-129.06089043 137.42937883 -134.51135867 127.81409928 -140 121 C-141.78278617 118.80509604 -143.57626251 116.61934178 -145.375 114.4375 C-146.18710938 113.44621094 -146.99921875 112.45492187 -147.8359375 111.43359375 C-149.94771113 108.85201666 -149.94771113 108.85201666 -153 107 C-153.74313893 103.96551604 -153.92818459 102.88341367 -153 100 C-148.23709549 93.72941349 -141.61363117 88.90170781 -135.48046875 84.04296875 C-132.97436597 82.06755384 -132.97436597 82.06755384 -130.9140625 79.77734375 C-129 78 -129 78 -125.1875 77.375 C-120.7040872 77.5500031 -118.70182271 79.72358356 -115.58984375 82.72265625 C-113.99884529 84.27401883 -113.99884529 84.27401883 -111.375 84 C-109.76648698 83.32273136 -108.16239236 82.63488898 -106.5625 81.9375 C-103.57691417 80.8452125 -101.15470377 80.85326959 -98 81 C-97.7834375 79.4221875 -97.7834375 79.4221875 -97.5625 77.8125 C-94.31317783 64.90674152 -82.18414107 54.1261531 -72.21484375 46.19140625 C-66.27415712 42.9957988 -60.02272363 42.69926991 -53.4375 42.8125 C-52.72142578 42.81314453 -52.00535156 42.81378906 -51.26757812 42.81445312 C-44.51768373 42.86972979 -38.7517378 43.16550814 -33 47 C-30.08913331 47.9702889 -28.09776315 48.16467847 -25.0625 48.1875 C-23.78052734 48.20876953 -23.78052734 48.20876953 -22.47265625 48.23046875 C-19.86090697 47.98703556 -18.24499348 47.3178268 -16 46 C-16.43770185 41.51355606 -17.77797559 38.6340358 -20.05078125 34.78125 C-21.7262262 31.63720515 -22.18796789 29.57138994 -22 26 C-17.7265826 18.79824084 -10.33149336 14.16574668 -3 10.5 C-0.69451256 9.09136974 -0.69451256 9.09136974 -0.1875 6 C-0.06268253 4.00292042 0 2.00097632 0 0 Z " fill="#958D24" transform="translate(180,12)"/>
<path d="M0 0 C0.71542969 0.11085937 1.43085938 0.22171875 2.16796875 0.3359375 C2.49796875 1.3259375 2.82796875 2.3159375 3.16796875 3.3359375 C4.80795641 4.06577494 6.48091827 4.72268153 8.16796875 5.3359375 C21.97035717 12.98979652 30.92821197 21.34548315 36.09375 36.25 C36.85020373 38.42308525 37.6427236 40.58378258 38.4609375 42.734375 C40.99762835 49.47408733 42.85335741 55.86264466 43.80859375 63.0078125 C44.04923945 65.35308643 44.04923945 65.35308643 45.16796875 67.3359375 C45.23889717 69.5432298 45.252119 71.75261202 45.23046875 73.9609375 C45.22144531 75.14945312 45.21242188 76.33796875 45.203125 77.5625 C45.19152344 78.47773438 45.17992187 79.39296875 45.16796875 80.3359375 C44.17796875 80.8309375 44.17796875 80.8309375 43.16796875 81.3359375 C43.16796875 82.3259375 43.16796875 83.3159375 43.16796875 84.3359375 C47.29409553 83.81927467 49.26406619 82.71387875 52.23046875 79.8359375 C54.891099 77.26487302 56.55443256 76.08012648 60.16796875 75.3359375 C60.62171875 74.8203125 61.07546875 74.3046875 61.54296875 73.7734375 C63.16796875 72.3359375 63.16796875 72.3359375 66.29296875 72.0859375 C69.16796875 72.3359375 69.16796875 72.3359375 70.16796875 73.3359375 C70.54296875 75.5859375 70.54296875 75.5859375 70.16796875 78.3359375 C68.56900217 80.0676596 66.88619696 81.7224793 65.16796875 83.3359375 C64.65669434 83.81853027 64.14541992 84.30112305 63.61865234 84.79833984 C61.97700994 86.34121434 60.32404833 87.87107872 58.66796875 89.3984375 C58.11238281 89.91470703 57.55679688 90.43097656 56.984375 90.96289062 C47.91801851 99.3359375 47.91801851 99.3359375 45.16796875 99.3359375 C45.16796875 99.9959375 45.16796875 100.6559375 45.16796875 101.3359375 C42.91796875 101.6484375 42.91796875 101.6484375 40.16796875 101.3359375 C36.25414098 97.74826204 35.57509698 94.52682249 35.16796875 89.3359375 C34.50796875 89.3359375 33.84796875 89.3359375 33.16796875 89.3359375 C33.16796875 88.3459375 33.16796875 87.3559375 33.16796875 86.3359375 C28.87796875 86.3359375 24.58796875 86.3359375 20.16796875 86.3359375 C18.33091531 81.74330391 17.48880733 77.87555418 16.73046875 73.0546875 C16.24619894 70.30898251 16.24619894 70.30898251 15.125 67.7421875 C14.19856109 65.41285538 13.94732234 63.81115 13.85546875 61.3359375 C12.87712982 51.40331005 8.76032557 41.92005377 1.16796875 35.3359375 C-3.69083476 31.57126456 -8.35683012 30.06948133 -14.20703125 28.5859375 C-15.03847656 28.36550781 -15.86992187 28.14507812 -16.7265625 27.91796875 C-18.75910279 27.38063051 -20.79522733 26.85688106 -22.83203125 26.3359375 C-21.55945324 20.52799486 -17.62461491 16.78574154 -13.83203125 12.3359375 C-13.15213135 11.52721191 -13.15213135 11.52721191 -12.45849609 10.70214844 C-11.03742809 9.02292541 -9.59492089 7.36486466 -8.14453125 5.7109375 C-7.69352051 5.17791016 -7.24250977 4.64488281 -6.77783203 4.09570312 C-4.54924233 1.60987423 -3.37909086 0.40083009 0 0 Z " fill="#999127" transform="translate(151.83203125,136.6640625)"/>
<path d="M0 0 C2.625 0.375 2.625 0.375 5 1 C4.35170195 4.43701653 3.00049055 6.86965956 1.12890625 9.80859375 C0.55462891 10.72060547 -0.01964844 11.63261719 -0.61132812 12.57226562 C-1.21396484 13.51779297 -1.81660156 14.46332031 -2.4375 15.4375 C-3.6274192 17.30883687 -4.81374742 19.18246301 -5.99609375 21.05859375 C-6.52388428 21.88673584 -7.0516748 22.71487793 -7.59545898 23.56811523 C-9.07528555 25.97478348 -9.07528555 25.97478348 -10.00024414 28.68383789 C-11 31 -11 31 -14 33 C-17.1875 33.125 -17.1875 33.125 -20 33 C-20.061875 33.556875 -20.12375 34.11375 -20.1875 34.6875 C-21.33874823 37.96412957 -23.48159664 39.66587006 -26 42 C-26.66 42.66 -27.32 43.32 -28 44 C-28.721875 44.268125 -29.44375 44.53625 -30.1875 44.8125 C-33.34353198 46.14504684 -35.74446863 47.90152139 -38.44921875 49.9765625 C-40 51 -40 51 -42 51 C-42 51.66 -42 52.32 -42 53 C-44.97 53.495 -44.97 53.495 -48 54 C-48.33 54.99 -48.66 55.98 -49 57 C-55.23396206 58.64124222 -59.36200444 58.29047155 -65 55.0625 C-70.64585541 51.43511103 -75.89437662 47.34881637 -81 43 C-79.38833189 39.34341967 -77.13576922 36.46966904 -74.625 33.375 C-73.85414063 32.41335937 -73.08328125 31.45171875 -72.2890625 30.4609375 C-70.21177535 28.22767657 -68.80269508 27.08780403 -66 26 C-64.85252535 27.62384142 -63.7070709 29.24911056 -62.5625 30.875 C-61.92441406 31.77992187 -61.28632813 32.68484375 -60.62890625 33.6171875 C-59 36 -59 36 -58 38 C-52.70558305 38.50423019 -50.18586481 37.18923033 -46 34 C-46.99 33.67 -47.98 33.34 -49 33 C-49.33 31.02 -49.66 29.04 -50 27 C-38.78 27 -27.56 27 -16 27 C-15.67 25.68 -15.34 24.36 -15 23 C-14.09524516 21.33253493 -13.13142009 19.69652344 -12.12890625 18.0859375 C-11.26749023 16.69761719 -11.26749023 16.69761719 -10.38867188 15.28125 C-9.78603516 14.3221875 -9.18339844 13.363125 -8.5625 12.375 C-7.96373047 11.40820312 -7.36496094 10.44140625 -6.74804688 9.4453125 C-2.27929325 2.27929325 -2.27929325 2.27929325 0 0 Z " fill="#D8CD3B" transform="translate(250,75)"/>
<path d="M0 0 C2.875 0.875 2.875 0.875 4.875 2.875 C5.51176845 8.51494911 5.51176845 8.51494911 4.875 10.875 C4.09253906 11.48988281 3.31007812 12.10476562 2.50390625 12.73828125 C-0.69328716 15.33689164 -1.34894607 17.30920752 -2.625 21.1875 C-4.96127631 27.72613495 -7.18028212 32.91185475 -13.125 36.875 C-15.48350859 37.46604112 -17.86258752 37.9768982 -20.25 38.4375 C-21.256073 38.63472656 -21.256073 38.63472656 -22.2824707 38.8359375 C-25.95486397 39.53687387 -29.58765391 40.0702964 -33.3125 40.375 C-37.10985091 40.87301323 -38.3532951 41.4231072 -41.125 43.875 C-42.115 43.875 -43.105 43.875 -44.125 43.875 C-44.54576363 40.45938933 -44.26317282 39.08776169 -42.359375 36.15625 C-36.95958835 30.11120583 -32.42122895 26.4549669 -24.69140625 23.875 C-22.03717693 22.84077975 -21.05546426 21.88247746 -19.125 19.875 C-16.59007178 18.56439692 -14.00922971 17.41379824 -11.40234375 16.25390625 C-8.8099486 14.68423989 -8.07072359 13.72297904 -7.125 10.875 C-7.16625 9.72 -7.2075 8.565 -7.25 7.375 C-7.125 3.875 -7.125 3.875 -5.5 1.375 C-3.125 -0.125 -3.125 -0.125 0 0 Z " fill="#FAF9EF" transform="translate(172.125,67.125)"/>
<path d="M0 0 C0.99 0 1.98 0 3 0 C3 8.25 3 16.5 3 25 C11.31300151 26.8107528 19.61716364 28.54583451 28 30 C28 31.32 28 32.64 28 34 C26.27054347 33.85764543 24.54144346 33.71095618 22.8125 33.5625 C21.84957031 33.48128906 20.88664062 33.40007812 19.89453125 33.31640625 C17 33 17 33 14.58984375 32.46484375 C11.27339246 31.86958326 8.11637411 31.94365901 4.75 32 C2.50030985 32.03733926 0.24950675 32.04711009 -2 32 C-3 31 -3 31 -3.0625 28.4375 C-3.041875 27.633125 -3.02125 26.82875 -3 26 C-2.01 25.67 -1.02 25.34 0 25 C0 16.75 0 8.5 0 0 Z " fill="#E9E8D8" transform="translate(55,95)"/>
<path d="M0 0 C2.625 0.375 2.625 0.375 5 1 C4.35170195 4.43701653 3.00049055 6.86965956 1.12890625 9.80859375 C0.55462891 10.72060547 -0.01964844 11.63261719 -0.61132812 12.57226562 C-1.5152832 13.99055664 -1.5152832 13.99055664 -2.4375 15.4375 C-3.6274192 17.30883687 -4.81374742 19.18246301 -5.99609375 21.05859375 C-6.52388428 21.88673584 -7.0516748 22.71487793 -7.59545898 23.56811523 C-9.07528555 25.97478348 -9.07528555 25.97478348 -10.00024414 28.68383789 C-11 31 -11 31 -14 33 C-17.1875 33.125 -17.1875 33.125 -20 33 C-20.061875 33.556875 -20.12375 34.11375 -20.1875 34.6875 C-21.57276896 38.63018859 -24.51849167 41.21520099 -28.16796875 43.1484375 C-28.77253906 43.42945313 -29.37710938 43.71046875 -30 44 C-29.04956626 42.66102417 -28.08940853 41.32894573 -27.125 40 C-26.59132812 39.2575 -26.05765625 38.515 -25.5078125 37.75 C-25.01023438 37.1725 -24.51265625 36.595 -24 36 C-23.34 36 -22.68 36 -22 36 C-21.67 34.68 -21.34 33.36 -21 32 C-19.96101563 31.84789063 -18.92203125 31.69578125 -17.8515625 31.5390625 C-13.44466651 30.27266209 -11.96215742 27.64301833 -9.71875 23.81640625 C-9.05359375 22.60791016 -9.05359375 22.60791016 -8.375 21.375 C-7.46644525 19.79930648 -6.55759297 18.22378448 -5.6484375 16.6484375 C-5.21370117 15.87854492 -4.77896484 15.10865234 -4.33105469 14.31542969 C-2.31885371 10.81511529 -0.16883789 7.40482969 2 4 C1.505 3.505 1.505 3.505 1 3 C0.0131555 4.34858172 -0.96369497 5.70447258 -1.9375 7.0625 C-2.94490234 8.40828125 -2.94490234 8.40828125 -3.97265625 9.78125 C-5.62372905 12.40260643 -6.4311889 14.10845128 -7.30859375 16.96875 C-8.98177545 21.67898624 -10.53805503 25.40256729 -15 28 C-25.75809708 30.26349322 -37.08026358 29.55323709 -48 29 C-48 29.33 -48 29.66 -48 30 C-45.69 30.33 -43.38 30.66 -41 31 C-40.67 31.99 -40.34 32.98 -40 34 C-42.97 33.67 -45.94 33.34 -49 33 C-49.33 31.02 -49.66 29.04 -50 27 C-38.78 27 -27.56 27 -16 27 C-15.67 25.68 -15.34 24.36 -15 23 C-14.09524516 21.33253493 -13.13142009 19.69652344 -12.12890625 18.0859375 C-11.55462891 17.16039063 -10.98035156 16.23484375 -10.38867188 15.28125 C-9.78603516 14.3221875 -9.18339844 13.363125 -8.5625 12.375 C-7.96373047 11.40820312 -7.36496094 10.44140625 -6.74804688 9.4453125 C-2.27929325 2.27929325 -2.27929325 2.27929325 0 0 Z " fill="#FDF265" transform="translate(250,75)"/>
<path d="M0 0 C2.875 0.875 2.875 0.875 4.875 2.875 C5.45231959 7.98840206 5.45231959 7.98840206 4.875 10.875 C3.21284732 12.21395632 1.54536393 13.54630142 -0.125 14.875 C-1.75372916 18.44987839 -2.96736479 22.12400321 -4.125 25.875 C-5.19810858 22.60314447 -5.01763102 20.44552408 -4.1875 17.125 C-3.99285156 16.32578125 -3.79820312 15.5265625 -3.59765625 14.703125 C-3.44167969 14.09984375 -3.28570312 13.4965625 -3.125 12.875 C-3.62128906 13.27332031 -4.11757812 13.67164062 -4.62890625 14.08203125 C-8.9624459 17.4616988 -12.89200919 20.13066973 -18.125 21.875 C-19.115 21.545 -20.105 21.215 -21.125 20.875 C-20.28195313 20.48828125 -19.43890625 20.1015625 -18.5703125 19.703125 C-17.47460938 19.18234375 -16.37890625 18.6615625 -15.25 18.125 C-14.15945312 17.61453125 -13.06890625 17.1040625 -11.9453125 16.578125 C-9.04469014 14.82650263 -8.08915366 14.06412365 -7.125 10.875 C-7.16625 9.72 -7.2075 8.565 -7.25 7.375 C-7.125 3.875 -7.125 3.875 -5.5 1.375 C-3.125 -0.125 -3.125 -0.125 0 0 Z " fill="#F6F3C7" transform="translate(172.125,67.125)"/>
<path d="M0 0 C3.32143562 0.07404474 4.43522833 0.20271691 7.25 2.125 C9.13019549 6.37587676 8.74289766 9.84082192 8.5625 14.4296875 C8.74444356 18.71673268 10.33910449 20.85240673 12.6875 24.375 C12.6875 25.695 12.6875 27.015 12.6875 28.375 C13.3475 28.375 14.0075 28.375 14.6875 28.375 C17.95432231 35.91494257 19.25934845 42.16262084 18.6875 50.375 C15.7175 50.87 15.7175 50.87 12.6875 51.375 C15.6875 49.375 15.6875 49.375 17.6875 49.375 C16.25253623 38.8601793 12.38536831 28.48825504 6.75 19.5 C4.36108127 15.52098079 4.51689421 12.77200025 5.5859375 8.3203125 C5.90682582 6.27367385 5.90682582 6.27367385 4.36328125 4.69140625 C2.56343145 3.27753822 0.772422 2.30962021 -1.3125 1.375 C-1.044375 2.426875 -0.77625 3.47875 -0.5 4.5625 C-0.3125 8.375 -0.3125 8.375 -2.75 11.3125 C-3.595625 11.993125 -4.44125 12.67375 -5.3125 13.375 C-5.9725 13.045 -6.6325 12.715 -7.3125 12.375 C-5.9925 11.715 -4.6725 11.055 -3.3125 10.375 C-3.3125 7.735 -3.3125 5.095 -3.3125 2.375 C-3.9725 2.045 -4.6325 1.715 -5.3125 1.375 C-3.74331508 -0.19418492 -2.17164841 0.09241057 0 0 Z " fill="#FEF582" transform="translate(181.3125,10.625)"/>
<path d="M0 0 C1.62463842 -0.05395478 3.24978541 -0.09277195 4.875 -0.125 C5.77992187 -0.14820312 6.68484375 -0.17140625 7.6171875 -0.1953125 C10 0 10 0 12 2 C11.96712417 4.72869407 11.43602229 7.2966618 11 10 C10.34 10 9.68 10 9 10 C8.67 10.99 8.34 11.98 8 13 C4.54718834 11.84906278 3.61917837 10.6794007 1.3125 7.9375 C0.68988281 7.20402344 0.06726563 6.47054687 -0.57421875 5.71484375 C-1.04472656 5.14894531 -1.51523438 4.58304687 -2 4 C-1.34 2.68 -0.68 1.36 0 0 Z " fill="#F2F1E5" transform="translate(72,98)"/>
<path d="M0 0 C0.71607422 0.00064453 1.43214844 0.00128906 2.16992188 0.00195312 C6.66006005 0.03872405 11.02166027 0.29523895 15.4375 1.1875 C15.9325 2.1775 15.9325 2.1775 16.4375 3.1875 C15.87804687 3.1153125 15.31859375 3.043125 14.7421875 2.96875 C-3.25502335 0.79338938 -3.25502335 0.79338938 -19.5 7.375 C-20.180625 7.973125 -20.86125 8.57125 -21.5625 9.1875 C-22.2225 9.1875 -22.8825 9.1875 -23.5625 9.1875 C-23.80742188 9.77015625 -24.05234375 10.3528125 -24.3046875 10.953125 C-25.76685874 13.55052236 -27.40990414 15.02725831 -29.6875 16.9375 C-30.77417969 17.85789062 -30.77417969 17.85789062 -31.8828125 18.796875 C-32.43710938 19.25578125 -32.99140625 19.7146875 -33.5625 20.1875 C-33.5625 17.1875 -33.5625 17.1875 -31.875 15.13671875 C-21.78759618 5.27082887 -14.4551423 -0.24854996 0 0 Z " fill="#D7CF67" transform="translate(126.5625,54.8125)"/>
<path d="M0 0 C1.24716797 0.46212891 1.24716797 0.46212891 2.51953125 0.93359375 C6.26126238 2.08005009 9.80377181 2.60263567 13.6875 3.0625 C20.70833333 3.90277778 20.70833333 3.90277778 24 5 C24 6.32 24 7.64 24 9 C15.9295642 8.38541771 7.98614219 7.30774665 0 6 C0 5.67 0 5.34 0 5 C1.65 4.67 3.3 4.34 5 4 C2.525 3.01 2.525 3.01 0 2 C0 1.34 0 0.68 0 0 Z " fill="#CAC7A2" transform="translate(59,120)"/>
<path d="M0 0 C0.33 0 0.66 0 1 0 C1.43938652 6.37110451 0.82193915 8.67808987 -3 14 C-4.58120726 15.75651107 -6.20999 17.47113168 -7.87890625 19.14453125 C-8.79994141 20.06814453 -9.72097656 20.99175781 -10.66992188 21.94335938 C-11.14486084 22.41410889 -11.6197998 22.8848584 -12.10913086 23.36987305 C-13.56930244 24.81925217 -15.01839065 26.27910781 -16.46679688 27.74023438 C-17.38654297 28.65740234 -18.30628906 29.57457031 -19.25390625 30.51953125 C-20.51182983 31.77407104 -20.51182983 31.77407104 -21.79516602 33.05395508 C-24 35 -24 35 -27 36 C-23.8879521 29.38869087 -19.1664821 25.02547618 -13.5 20.5 C-5.81259425 14.30823918 -1.3189771 10.02877415 0 0 Z " fill="#C6BF62" transform="translate(129,80)"/>
<path d="M0 0 C0.66 0.33 1.32 0.66 2 1 C1.67 1.33 1.34 1.66 1 2 C0.96155288 3.44617451 0.98824518 4.89419364 1.04296875 6.33984375 C1.55277924 25.45945939 1.55277924 25.45945939 -3 33 C-3.66 33 -4.32 33 -5 33 C-5.28875 33.639375 -5.5775 34.27875 -5.875 34.9375 C-7 37 -7 37 -9 38 C-8.00101675 35.99307401 -6.99532635 33.99097016 -5.96484375 32 C-5.62582031 31.34 -5.28679687 30.68 -4.9375 30 C-4.59589844 29.34 -4.25429687 28.68 -3.90234375 28 C-0.87331116 21.28630006 -1.30427348 13.05123638 -2.6875 5.9375 C-3 3 -3 3 -1.5625 1.0625 C-1.046875 0.711875 -0.53125 0.36125 0 0 Z " fill="#E0D862" transform="translate(182,65)"/>
<path d="M0 0 C-2.93607943 1.92680212 -5.34068397 3.09652713 -8.75 4.0625 C-14.56884085 6.13511569 -18.55393029 11.03826286 -22 16 C-22.7937311 18.69001612 -22.7937311 18.69001612 -23 21 C-22.030625 20.34 -21.06125 19.68 -20.0625 19 C-15.74410421 16.48683524 -11.87367725 16.6021488 -7 17 C-12.75444098 19.96673401 -18.85158427 22.00176489 -25 24 C-25.21400334 17.47289809 -23.90240215 14.2380465 -19.625 9.25 C-14.76028962 4.2662967 -7.36630572 -2.45543524 0 0 Z " fill="#C6BE52" transform="translate(151,90)"/>
<path d="M0 0 C0.66 0 1.32 0 2 0 C0.39605993 3.86778691 -2.22636012 6.62646356 -5.0625 9.625 C-6.05897986 10.69495303 -7.05506793 11.76527107 -8.05078125 12.8359375 C-8.54787598 13.36799805 -9.0449707 13.90005859 -9.55712891 14.44824219 C-11.64536796 16.69407085 -13.69931302 18.96989021 -15.75 21.25 C-16.46929687 22.04921875 -17.18859375 22.8484375 -17.9296875 23.671875 C-20.48937671 26.55031796 -23.00030979 29.46896419 -25.4921875 32.40625 C-27 34 -27 34 -30 36 C-28.43586569 32.16076124 -25.90063768 29.90063768 -23 27 C-22.505 26.175 -22.01 25.35 -21.5 24.5 C-19.15616285 20.59360475 -15.75263204 17.73146426 -12.5 14.5703125 C-6.8530369 9.06522987 -6.8530369 9.06522987 -2 2.875 C-1.34 1.92625 -0.68 0.9775 0 0 Z " fill="#CBC465" transform="translate(171,103)"/>
<path d="M0 0 C0.33 0 0.66 0 1 0 C1 1.65 1 3.3 1 5 C1.66 5 2.32 5 3 5 C7 11.5 7 11.5 7 16 C7.66 16 8.32 16 9 16 C12.26682231 23.53994257 13.57184845 29.78762084 13 38 C10.03 38.495 10.03 38.495 7 39 C10 37 10 37 12 37 C10.44060329 25.57338617 5.94481894 14.45420971 -0.21484375 4.734375 C-1 3 -1 3 0 0 Z " fill="#FDF370" transform="translate(187,23)"/>
<path d="M0 0 C2.875 -0.125 2.875 -0.125 6 0 C6.66 0.66 7.32 1.32 8 2 C7.96674646 5.38077661 7.43082516 8.63956379 7 12 C11.95 13.98 11.95 13.98 17 16 C17 16.33 17 16.66 17 17 C15.56138706 16.91253716 14.12402492 16.80434652 12.6875 16.6875 C11.88699219 16.62949219 11.08648437 16.57148438 10.26171875 16.51171875 C7.57657401 15.90419896 6.61550608 15.20906263 5 13 C4.7195299 9.14353614 4.81765146 5.69483919 6 2 C2.22699642 3.0197307 1.19793856 3.65872662 -0.8125 7.125 C-1.204375 8.07375 -1.59625 9.0225 -2 10 C-3 8 -3 8 -2.44140625 6.0546875 C-2.15136719 5.33539063 -1.86132812 4.61609375 -1.5625 3.875 C-1.27503906 3.15054688 -0.98757812 2.42609375 -0.69140625 1.6796875 C-0.46324219 1.12539062 -0.23507813 0.57109375 0 0 Z " fill="#5E5C3A" transform="translate(22,189)"/>
<path d="M0 0 C0 0.99 0 1.98 0 3 C-16.335 3.495 -16.335 3.495 -33 4 C-33 4.33 -33 4.66 -33 5 C-30.69 5.33 -28.38 5.66 -26 6 C-25.67 6.99 -25.34 7.98 -25 9 C-27.97 8.67 -30.94 8.34 -34 8 C-34.33 6.02 -34.66 4.04 -35 2 C-33.46291382 1.96241577 -33.46291382 1.96241577 -31.89477539 1.92407227 C-28.10590324 1.83015516 -24.31722119 1.72989683 -20.52856445 1.62768555 C-18.88635697 1.58427703 -17.24410261 1.54260642 -15.60180664 1.50268555 C-13.24611255 1.4451256 -10.89065572 1.38139108 -8.53515625 1.31640625 C-7.79660904 1.29969376 -7.05806183 1.28298126 -6.2971344 1.26576233 C-2.85699373 1.46451987 -2.85699373 1.46451987 0 0 Z " fill="#EAE268" transform="translate(235,100)"/>
<path d="M0 0 C6.02903226 7.7516129 6.02903226 7.7516129 5.9375 11.6875 C5 14 5 14 3.24609375 15.12890625 C-2.59542669 17.39440026 -9.35407603 16.37723114 -15 14 C-15 13.67 -15 13.34 -15 13 C-8.73 13 -2.46 13 4 13 C3.01 10.89625 3.01 10.89625 2 8.75 C0.40783761 5.36665493 0 3.87950965 0 0 Z " fill="#EBE481" transform="translate(159,45)"/>
<path d="M0 0 C0.99 0 1.98 0 3 0 C3.33 0.66 3.66 1.32 4 2 C6.11846285 2.68729254 6.11846285 2.68729254 8.5625 3.125 C9.80193359 3.37636719 9.80193359 3.37636719 11.06640625 3.6328125 C11.70449219 3.75398438 12.34257813 3.87515625 13 4 C13 4.33 13 4.66 13 5 C9.7 5 6.4 5 3 5 C3 5.66 3 6.32 3 7 C1.02 7 -0.96 7 -3 7 C-2.25 2.25 -2.25 2.25 0 0 Z " fill="#F8F7F3" transform="translate(56,120)"/>
<path d="M0 0 C1 3 1 3 0.05957031 5.03710938 C-0.42930664 5.79830078 -0.91818359 6.55949219 -1.421875 7.34375 C-1.95296875 8.17777344 -2.4840625 9.01179688 -3.03125 9.87109375 C-3.5984375 10.73863281 -4.165625 11.60617188 -4.75 12.5 C-5.30171875 13.36753906 -5.8534375 14.23507813 -6.421875 15.12890625 C-10.91793344 22.12157407 -10.91793344 22.12157407 -14 25 C-14 21.39853051 -13.08883312 20.17193795 -11.19140625 17.1484375 C-10.60939453 16.21515625 -10.02738281 15.281875 -9.42773438 14.3203125 C-8.81220703 13.34835938 -8.19667969 12.37640625 -7.5625 11.375 C-6.95083984 10.3953125 -6.33917969 9.415625 -5.70898438 8.40625 C-1.18018031 1.18018031 -1.18018031 1.18018031 0 0 Z " fill="#FDF481" transform="translate(249,76)"/>
<path d="M0 0 C-0.51949219 0.36351563 -1.03898438 0.72703125 -1.57421875 1.1015625 C-6.08061045 4.3501628 -9.94545642 7.32273014 -13 12 C-13.41904703 15.75202267 -13.41904703 15.75202267 -13 19 C-13.66 18.67 -14.32 18.34 -15 18 C-15.83367677 11.33058581 -15.83367677 11.33058581 -13.6171875 7.79296875 C-5.39583333 -1.79861111 -5.39583333 -1.79861111 0 0 Z " fill="#F6EE77" transform="translate(172,26)"/>
<path d="M0 0 C1 3 1 3 -0.0625 5.1875 C-2 7 -2 7 -5.1875 7.25 C-6.115625 7.1675 -7.04375 7.085 -8 7 C-8.061875 7.556875 -8.12375 8.11375 -8.1875 8.6875 C-9.57276896 12.63018859 -12.51849167 15.21520099 -16.16796875 17.1484375 C-16.77253906 17.42945312 -17.37710938 17.71046875 -18 18 C-17.04956626 16.66102417 -16.08940853 15.32894573 -15.125 14 C-14.32449219 12.88625 -14.32449219 12.88625 -13.5078125 11.75 C-13.01023438 11.1725 -12.51265625 10.595 -12 10 C-11.34 10 -10.68 10 -10 10 C-9.67 8.68 -9.34 7.36 -9 6 C-7.88625 5.7525 -6.7725 5.505 -5.625 5.25 C-1.95384802 4.38994661 -1.95384802 4.38994661 -0.5625 1.875 C-0.376875 1.25625 -0.19125 0.6375 0 0 Z " fill="#EFE663" transform="translate(238,101)"/>
<path d="M0 0 C1.32 0.33 2.64 0.66 4 1 C2.56877218 2.48523642 1.12979111 3.96300462 -0.3125 5.4375 C-1.11300781 6.26121094 -1.91351563 7.08492188 -2.73828125 7.93359375 C-5 10 -5 10 -8 11 C-6.63629701 8.00779732 -5.05091917 5.70973471 -2.875 3.25 C-2.33617188 2.63640625 -1.79734375 2.0228125 -1.2421875 1.390625 C-0.62730469 0.70226562 -0.62730469 0.70226562 0 0 Z " fill="#B2AB4D" transform="translate(110,105)"/>
<path d="M0 0 C0.33 0 0.66 0 1 0 C1.66 2.97 2.32 5.94 3 9 C-1.49060219 13.12402242 -5.17875207 16.09689972 -11 18 C-11.99 17.67 -12.98 17.34 -14 17 C-13.15695313 16.61328125 -12.31390625 16.2265625 -11.4453125 15.828125 C-10.34960938 15.30734375 -9.25390625 14.7865625 -8.125 14.25 C-6.48917969 13.48429687 -6.48917969 13.48429687 -4.8203125 12.703125 C-1.90905053 10.9450776 -0.98186628 10.1910654 0 7 C0.0777346 4.66796188 0.08967728 2.33160941 0 0 Z " fill="#DBD25A" transform="translate(165,71)"/>
<path d="M0 0 C0.66 0.33 1.32 0.66 2 1 C1.67 1.33 1.34 1.66 1 2 C0.91314397 3.56172745 0.89297781 5.12729344 0.90234375 6.69140625 C0.90556641 7.63564453 0.90878906 8.57988281 0.91210938 9.55273438 C0.92048828 10.54595703 0.92886719 11.53917969 0.9375 12.5625 C0.94201172 13.55958984 0.94652344 14.55667969 0.95117188 15.58398438 C0.96299993 18.05604849 0.97948151 20.52799518 1 23 C0.67 23 0.34 23 0 23 C-0.04898438 22.20335938 -0.09796875 21.40671875 -0.1484375 20.5859375 C-0.58874671 13.93635961 -0.58874671 13.93635961 -2.1875 7.5 C-3 5 -3 5 -2.1875 2.6875 C-1 1 -1 1 0 0 Z " fill="#EFE88A" transform="translate(182,65)"/>
<path d="M0 0 C-5.75444098 2.96673401 -11.85158427 5.00176489 -18 7 C-17.67 5.02 -17.34 3.04 -17 1 C-16.67 1.99 -16.34 2.98 -16 4 C-15.030625 3.34 -14.06125 2.68 -13.0625 2 C-8.74410421 -0.51316476 -4.87367725 -0.3978512 0 0 Z " fill="#DDD9A4" transform="translate(144,107)"/>
<path d="M0 0 C0.66 0.99 1.32 1.98 2 3 C4.86408891 4.45604386 4.86408891 4.45604386 8.125 5.6875 C9.22070312 6.12449219 10.31640625 6.56148437 11.4453125 7.01171875 C12.28835937 7.33785156 13.13140625 7.66398438 14 8 C10.85681547 9.57159226 8.07066611 8.04018399 4.875 7.0625 C4.21628906 6.86720703 3.55757812 6.67191406 2.87890625 6.47070312 C1.25066448 5.98695014 -0.37493182 5.49430925 -2 5 C-1.125 1.125 -1.125 1.125 0 0 Z " fill="#BDB87D" transform="translate(131,158)"/>
<path d="M0 0 C1.0209375 0.2165625 1.0209375 0.2165625 2.0625 0.4375 C2.3925 1.0975 2.7225 1.7575 3.0625 2.4375 C1.7940625 2.746875 1.7940625 2.746875 0.5 3.0625 C-3.78403389 4.77611355 -6.60992567 7.30682356 -9.9375 10.4375 C-9.9375 6.77737329 -9.24560988 6.28817891 -6.75 3.75 C-3.39687236 0.50591716 -3.39687236 0.50591716 0 0 Z " fill="#BAB45D" transform="translate(151.9375,136.5625)"/>
<path d="M0 0 C1.32 0.33 2.64 0.66 4 1 C3.3503125 1.99 3.3503125 1.99 2.6875 3 C0.67535337 6.57714956 -0.62428695 10.13490142 -2 14 C-3.07174763 10.34811918 -2.76411467 7.73567172 -2 4 C-1.34 4 -0.68 4 0 4 C0 2.68 0 1.36 0 0 Z " fill="#E5DF82" transform="translate(170,79)"/>
<path d="M0 0 C0.99 0.33 1.98 0.66 3 1 C1.73548068 2.31858428 0.46314525 3.62967631 -0.8125 4.9375 C-1.52019531 5.66839844 -2.22789063 6.39929688 -2.95703125 7.15234375 C-5 9 -5 9 -8 10 C-6.34908222 5.70761377 -3.26245434 3.1206085 0 0 Z " fill="#C3BB57" transform="translate(100,65)"/>
<path d="M0 0 C0.33 0 0.66 0 1 0 C0.95875 0.9075 0.9175 1.815 0.875 2.75 C1.64375337 6.13339655 1.64375337 6.13339655 4.29296875 7.2890625 C6.84068244 8.28802499 9.38541352 9.19332178 12 10 C12 10.33 12 10.66 12 11 C10.56138706 10.91253716 9.12402492 10.80434652 7.6875 10.6875 C6.88699219 10.62949219 6.08648437 10.57148438 5.26171875 10.51171875 C2.57095651 9.90292799 1.60703387 9.22512381 0 7 C-0.1875 3.3125 -0.1875 3.3125 0 0 Z " fill="#656243" transform="translate(27,195)"/>
<path d="M0 0 C0 0.33 0 0.66 0 1 C-2.31 1.33 -4.62 1.66 -7 2 C-7 2.66 -7 3.32 -7 4 C-5.35 4 -3.7 4 -2 4 C-2 4.33 -2 4.66 -2 5 C-4.64 5 -7.28 5 -10 5 C-10.33 4.01 -10.66 3.02 -11 2 C-7.17010894 0.19769832 -4.21878192 -0.19622241 0 0 Z " fill="#A7A14A" transform="translate(82,93)"/>
<path d="M0 0 C4.29 0 8.58 0 13 0 C13 0.99 13 1.98 13 3 C8.71 2.34 4.42 1.68 0 1 C0 0.67 0 0.34 0 0 Z " fill="#EDECDE" transform="translate(70,125)"/>
<path d="M0 0 C0.99 0.33 1.98 0.66 3 1 C2.50769231 6.53846154 2.50769231 6.53846154 -0.0625 8.875 C-1.0215625 9.431875 -1.0215625 9.431875 -2 10 C-2.66 9.67 -3.32 9.34 -4 9 C-2.68 8.34 -1.36 7.68 0 7 C0 4.69 0 2.38 0 0 Z " fill="#FEF795" transform="translate(178,14)"/>
<path d="M0 0 C0.66 0.33 1.32 0.66 2 1 C1.54625 1.5775 1.0925 2.155 0.625 2.75 C-0.84113516 4.7800333 -1.94857784 6.73539843 -3 9 C-3.1875 5.625 -3.1875 5.625 -3 2 C-2.01 1.34 -1.02 0.68 0 0 Z " fill="#E3E0C1" transform="translate(92,96)"/>
</svg>
