<?xml version="1.0" encoding="UTF-8"?>
<svg version="1.1" viewBox="0 0 1600 858" width="1280" height="1280" xmlns="http://www.w3.org/2000/svg">
<path transform="translate(0)" d="m0 0h1600v858h-1600z" fill="#FCFCFC"/>
<path transform="translate(779,139)" d="m0 0h21l24 3 28 7 10 3-1 2 6 4 9 4 10 5 3 5 3 8 3 2v9l5 10-8 10-12 9-18 8-26 10-13 7-12 10-9 12-7 15-3 9 8-7 10-2 7-2h13l17 4 10 4v2l5 2 6 5 1 6-3 7-2 5v4l-19 19-7 8-14 14-9 11-10 12-15 20-13 18-29 43-11 18-16 24-9 10-3 1v2l-17 10-17 5-14 3-7 1h-38l-23-4-24-7-18-6-9-6-3-4v-8l5-16-12-2-8 20-5 13-10 18-9 10-8 5h-8l-4-4-1-2v-13l7-21 6-15 5-11 8-16 6-9 4-4 9-1 11 2 16 5 5-7 10 1 19 6 23 6 16 5 11 3h11l7-8 11-19 13-24 11-24 13-34 13-37 8-19 9-17 9-12 9-10 14-13 11-9 10-9 8-8 6-10 2-5v-9l-3-6-5-4-5-2h-16l-13 5-13 9-12 11-26 26-9 6 1 9-2 10-6 11-9 10 3 5 10 13 4 8v7l-4 7-9 10-8 7-15 13-10 9-13 10-10 5h-8l-10-6v-2l-4-2-11-11-9-11-2-4-3-1-9-11v-2h-2l-9-11-20-25-3-6 1-9 7-9 12-11 11-9 12-11 11-9 8-7 10-5 8 1 8 6 14 14 11-7 8-3 13-1 4 1 7-16 8-14 11-16 11-13 13-13 17-13 16-9 11-3z" fill="#978E28"/>
<path transform="translate(779,139)" d="m0 0h21l24 3 28 7 10 3-1 2 6 4 9 4 10 5 3 5 3 8 3 2v9l5 10-8 10-12 9-18 8-26 10-13 7-12 10-9 12h-2v-7l3-7v-5l-7-4-12 1-4 1 6-7 9-10 5-11v-9l-3-6-5-4-5-2h-16l-13 5-13 9-12 11-26 26-9 6 1 9-2 10-6 11-9 10 3 5 10 13 4 8v7l-4 7-9 10-8 7-15 13-10 9-13 10-10 5h-8l-10-6v-2l-4-2-11-11-9-11-2-4-3-1-9-11v-2h-2l-9-11-20-25-3-6 1-9 7-9 12-11 11-9 12-11 11-9 8-7 10-5 8 1 8 6 14 14 11-7 8-3 13-1 4 1 7-16 8-14 11-16 11-13 13-13 17-13 16-9 11-3z" fill="#988F28"/>
<path transform="translate(854,347)" d="m0 0 16 8 21 13 17 12 11 9 9 9 9 14 7 14 10 28 10 34 7 30 2 14v15l-3 8-3 3 1 4 3 2 5-1 11-8 15-11 13-8 9-4h8l5 5 1 5-4 8-12 13-8 7-10 9-14 12-15 12-5 3h-8l-6-5-7-14-6-19v-4l-6 2-14 2-10-1-6-5-5-19-7-35-7-26-8-20-6-11-9-11-12-9-17-8-20-6-16-4 1-4 14-18 9-11 12-14 12-13 4-5z" fill="#988F28"/>
<path transform="translate(926,27)" d="m0 0h7l10 4 8 7 4 9v8l-4 9 1 5 11 19 9 21 10 30 1 4v10l-5 4-8 3-26 7-10 5-1 6 3 19v25l-3 12-8 15-9 12-9 11-12 14-7 7-7 8-10 10-5 6-3-3 4-7 1-8-5-5-6-4v-2l-11-3-17-4h-12l-8 2-9 2-8 7-1-2 8-19 7-11 8-9 12-9 17-8 29-11 11-6 10-8 6-8-5-10 1-9-4-2-4-9-2-4-9-4-18-9 4-2h13l9-4 5-4-2-5-11-21-4-13v-10l6-12 7-7 14-9 20-11 8-7 1-2v-8l-4-4-5-2v-3z" fill="#ECDD46"/>
<path transform="translate(519,455)" d="m0 0 13 1 19 6 5-7 10 1 19 6 23 6 16 5 11 3h11l8-9h2l1-2 3 5 10-4 10 1 7 6 8 4v2l7 2v3l4 2v2h2l3 7 1 4-2 9-6 9h-2l-2 4-1 4-10 5-14 4-14 3-7 1h-38l-23-4-24-7-18-6-9-6-3-4v-8l5-16-12-2-8 20-5 13-10 18-9 10-8 5h-8l-4-4-1-2v-13l7-21 6-15 5-11 8-16 6-9 4-4z" fill="#4B460D"/>
<path transform="translate(779,139)" d="m0 0h21l24 3 28 7 10 3-1 2 6 4 9 4 10 5 3 5 3 8 3 2v9l5 10-8 10-12 9-18 8-26 10-13 7-12 10-9 12h-2v-7l3-7v-5l-7-4-12 1-4 1 6-7 9-10 5-11v-9l-3-6-5-4-5-2h-16l-13 5-13 9-2-1 1-5 6-7v-13l-3-4-8-2-8 1-8-1-5-1-7 6 2-4 15-15 17-13 16-9 11-3z" fill="#CCC03D"/>
<path transform="translate(670,699)" d="m0 0h33l18 2 10 4 6 5 5 8 2 9v12l-2 8-5 9-5 4h-2v2l5 2 8 7 5 10 1 4v20l-3 9-9 10-10 5-16 3h-41l-1-34v-98z" fill="#3B3402"/>
<path transform="translate(567,697)" d="m0 0h16l9 3 8 6 7 9 5 13 3 16 1 11v22l-3 22-4 13-7 11-10 8-8 3h-17l-13-5v-2l-4-2-2-4h-2l-7-14-4-18-1-11v-24l2-18 5-16 7-12 9-7z" fill="#3C3502"/>
<path transform="translate(1111,190)" d="m0 0 7 1 4 3-2 7-14 23-15 24-14 23-5 4h-14l-3 9-7 7-11 9-19 14-20 12-17 8-10 3h-9l-13-5-17-10-17-13-13-10 2-4 9-10 9-11 11-14 4-5h2l9 16 8 12 6 7 4 1 16-8 14-6 6-2v-1h-16l-5-5-2-4v-5l1-1h42l45 1 2-6 16-26 12-19 10-16z" fill="#CCC03D"/>
<path transform="translate(575,254)" d="m0 0h3l-1 9 13 2 5 4 6 7 2 1v2h2l2 2h3v24l-5 5-1 5 3 6 4 3h7l4-3 8 1 3 1h6l3-1 5 1v2h2l1 2 3 2 5 3 4 2v2l4 2 6 6 1 5-7 9-1 4-12 11-13 10-10 5h-8l-10-6v-2l-4-2-11-11-9-11-2-4-3-1-9-11v-2h-2l-9-11-20-25-3-6 1-9 7-9 12-11 11-9z" fill="#6C641A"/>
<path transform="translate(1112,699)" d="m0 0h18l7 1v55h21v-55h27v132h-26l-1-1v-57h-21v58h-26l-1-60v-72z" fill="#3B3402"/>
<path transform="translate(696,381)" d="m0 0h5v4h14v2h3l1 4h2v2l4 2 6 4 11 7 6 5 2 5 5 9v3l3 1 1 7v2l4 1-1 4-15 23-14 22-12 18-9 10-3 1v2l-8 5h-2l1-4 5-6 4-7 2-9-3-10h-2l-4-4v-3l-7-2v-2l-5-2-5-3-5-4-10-1-11 4-2-5h-3l9-15 14-26 11-24z" fill="#6C651A"/>
<path transform="translate(519,455)" d="m0 0 13 1 19 6v2h2l1-2-1 6 4 3 12 2 15 9v2l4 2 9 5 6 5 1 3 11 8 7 8 1 5 3 1 1 5-3 4h-4l2 5 1 2h-14l-20-4-26-8-12-4-9-6-3-4v-8l5-16-12-2-8 20-5 13-10 18-9 10-8 5h-8l-4-4-1-2v-13l7-21 6-15 5-11 8-16 6-9 4-4z" fill="#3A3301"/>
<path transform="translate(926,27)" d="m0 0h7l10 4 8 7 4 9v8l-4 9 1 5 11 19 9 21 10 30 1 4v10l-5 4-8 3-11 2 1-6h2l-1-11-2-5-4-1-9-5-5-1-6-3 1-2-6-4-7-8-2 1-2-2h2v-2h-4l-5-5-4-3v-2l-5-2v-3l-2-5-10-2-7-1-1 1h-5v-2l4-1-5 1-2 1 2-5 7-8 10-7 18-10 11-7 5-6v-8l-4-4-5-2v-3z" fill="#FEED4A"/>
<path transform="translate(1018,697)" d="m0 0h17l13 4 9 5-8 16-4-1-5-3-4-1h-9l-5 3h-2l-2 5v8l6 11 9 11 11 12 10 15 4 10 1 4v14l-3 8-8 9-8 5-7 2h-18l-8-2-11-4-7-6 1-6 6-11 16 8 4 1h8l6-3 3-6-1-9-5-9-11-13-10-11-7-10-6-12-1-4v-18l5-10 8-7 8-4z" fill="#3B3402"/>
<path transform="translate(454,699)" d="m0 0h26l1 1v91l-1 15-3 10-5 8-8 7-8 3h-17l-9-3-10-6-4-4 1-4 9-11 12 4h8l4-4h2l1-10z" fill="#393201"/>
<path transform="translate(905,175)" d="m0 0 7 1 5 3 4 8-1 7-4 5-10 4-3 14-6 17-8 14-5 6-11 8-13 6-17 4-24 5-16 6-9 7-3 2 3-10 8-16 6-8 6-7 12-9 17-8 29-11 11-6 10-8 6-8-5-10 1-8 4-5z" fill="#FDFDFD"/>
<path transform="translate(1111,190)" d="m0 0 7 1 4 3-2 7-14 23-15 24-14 23-5 4h-14l-3 9-7 7-11 9-19 14-5 1 1-20-4-4-6-3-4-1v-2l-13-2 1-3 14-5v-1h-16l-5-5-2-4v-5l1-1h42l45 1 2-6 16-26 12-19 10-16z" fill="#EBDD46"/>
<path transform="translate(905,205)" d="m0 0h1l1 5h3v2l4-2 12 1 4 6-1 14h4l-1 5-9 16-11 14-11 13-9 10-14 15-7 7-5 6-3-3 4-7 1-8-5-5-6-4v-2l-11-3-17-4h-12l-8 2h-6l2-2 18-6 30-6 12-4 13-7 4-4h2l2-4 7-10 6-14 5-16z" fill="#CCC03C"/>
<path transform="translate(911,699)" d="m0 0h26v133h-26l-1-120z" fill="#3D3603"/>
<path transform="translate(508,464)" d="m0 0h4l-1 13 1 4 7 4h7l3 3-1 7-6 16-8 16-7 12-9 9-6 3h-8l-4-4-1-2v-13l7-21 6-15 5-11 8-16z" fill="#322E02"/>
<path transform="translate(696,381)" d="m0 0h5v4h14v2h3l1 4h2v2l4 2 6 4 11 7 6 5 2 5 5 9v3l3 1 1 7v2l4 1-1 4-14 21-4-4 2-9-3-1-2-7-5-8-2-4-5-2-3-2v-2l-4-2-8-6-6-6-3 1-4-2h-10l-3-2h-2l1-5z" fill="#77701D"/>
<path transform="translate(572,720)" d="m0 0 7 1 4 4 4 11 2 19v24l-3 20-5 10-3 2h-6l-5-5-4-11-2-13v-32l2-14 5-12z" fill="#FCFCFC"/>
<path transform="translate(936,702)" d="m0 0h1v129h-25v-105l3 3 1 25 1 49 1 20 3 3 11 1-1-5-1-6-2-25 1-51 1-16 1-3-2-1 1-12-1-3 6-1z" fill="#3E3101"/>
<path transform="translate(1111,190)" d="m0 0 7 1 4 3-2 7-14 23-15 24-14 23-5 4h-9l-3-3 4-5v-5l3-1 1-5 12-20 12-19 13-21 4-5z" fill="#FEED4A"/>
<path transform="translate(575,254)" d="m0 0h3l-1 9 13 2 5 4 6 7 2 1v2h2l2 2h3v24l-5 5-2 3-3-6-7-3-5-8-3-7-4-6-8-3-17 1v-5-2l-9 8-2 3-3 9-2 2 1-9 7-9 12-11 11-9z" fill="#78711D"/>
<path transform="translate(939,699)" d="m0 0h6l2 6v105l-1 22h-9v-132z" fill="#62B3DE"/>
<path transform="translate(622,321)" d="m0 0 8 1 3 1h6l3-1 5 1v2h2l1 2 3 2 5 3 4 2v2l4 2 6 6 1 5-7 9-1 4-12 11-13 10-10 5h-8l-5-3-2-4 1-1h5l5 1 12-3 9-6 3-3h2l2-4 3-3v-7l-3-1-5-8-11-6-10-3-11-5-2-4h-2l-1-3 8-2z" fill="#79721D"/>
<path transform="translate(612,242)" d="m0 0h6l1 2v58l6 8 4 2 48 6 6 2-1 6h-10l-43-6h-5l-6 5h-7l-6-5-2-7 3-6 4-3 1-51z" fill="#FCFCFC"/>
<path transform="translate(583,697)" d="m0 0h10l10 4 10 9 6 12 4 13 2 15v29l-3 19-5 15-6 9-7 7-11 5h-9l3-2 8-4 7-6 6-10 4-13 3-22v-22l-2-17-4-16-5-10-7-8-10-5z" fill="#56AADC"/>
<path transform="translate(716,700)" d="m0 0h9l13 4 8 6 4 6 3 10v14l-3 10-6 8-4 4 5 2 5 4 6 10 3 12-1 14-4 11-8 9-9 5-15 3h-11v-1l16-3 10-5 8-9 3-9v-20l-4-11-7-8-7-4v-2l6-4 5-9 2-8v-12l-2-9-6-9-8-5-11-3z" fill="#58ABDC"/>
<path transform="translate(483,699)" d="m0 0 7 1v91l-1 14-3 11-6 9-7 6-8 3h-9l4-2 9-6 5-6 4-9 1-5 1-15 1-91z" fill="#62B3DE"/>
<path transform="translate(1185,700)" d="m0 0h9v132h-9l-1-131z" fill="#61B3DE"/>
<path transform="translate(1027,716)" d="m0 0h9l-9 9 1 9 7 12 9 10 9 11 7 10 7 14 1 4v14l-4 10-7 8-12 6-3 1h-9l12-6 8-7 4-7 1-4v-14l-4-12-9-14-12-14-7-8-7-11-2-4v-8l3-5z" fill="#62B3DE"/>
<path transform="translate(1183,703)" d="m0 0h2v129h-26v-1h25l-1-5-3 1-2-1-2-16v-70l-1-3v-10l1-6v-10-3l-3-2 4-1 5 1z" fill="#443804"/>
<path transform="translate(697,773)" d="m0 0h11l9 3 4 5 1 4v16l-4 7-6 4-14 1-2-1v-38z" fill="#FAFBFB"/>
<path transform="translate(480,700)" d="m0 0h1v91l-1 15-2 8-5-2-1-1-2-13 3-65 1-7-1-6 2-5-2-7 1-1-2-2 1-1h6z" fill="#423603"/>
<path transform="translate(807,762)" d="m0 0h45v19h-45z" fill="#413A05"/>
<path transform="translate(572,720)" d="m0 0 7 1-5 12-3 21v21l2 19 4 13v2l2 1-1 1h-6l-5-5-4-11-2-13v-32l2-14 5-12z" fill="#56AADC"/>
<path transform="translate(696,719)" d="m0 0h15l5 3 3 6 1 5v7l-3 9-4 3-7 2h-10z" fill="#FCFCFB"/>
<path transform="translate(669,248)" d="m0 0 7 1 7 6 1 3v8l-4 10-6 9-6-5-8-10-10-12 2-4 8-4z" fill="#FDFDFD"/>
<path transform="translate(1022,697)" d="m0 0h13l13 4 9 5-8 16-4-1-5-3-4-1h-9l-5 2-8-1 4-4-1-6 4-5 7-4-6-1z" fill="#3F3201"/>
<path transform="translate(1137,774)" d="m0 0h21v1h-11l-1 57h-9z" fill="#63B4DF"/>
<path transform="translate(1137,700)" d="m0 0h9l1 6v49h-10z" fill="#62B3DE"/>
<path transform="translate(912,726)" d="m0 0 3 3 1 25 1 49 1 20 3 3 11 1 5-2v6h-25z" fill="#2E2A01"/>
<path transform="translate(609,735)" d="m0 0 4 1 2 8 1 11v22l-3 22-3 10-5 1-1-6 3-17 1-2h2l-1-18 1-1v-11l-2-6-2-7 2-6z" fill="#443704"/>
<path transform="translate(1158,700)" d="m0 0h27l-3 6h-10l-8 2-1 4v37l-3 9-4 2h-6l-11-3v-1h19z" fill="#3A3605"/>
<path transform="translate(1134,702)" d="m0 0 2 1v52h-5l-3-5-1-12v-13l1-7-2-2h-2v-3h2l-1-3 4-2-3-3v-2z" fill="#3C2F00"/>
<path transform="translate(487,772)" d="m0 0h1v38l-4 10-8 9-8 4-3 1h-9l4-2 9-6 5-6 8-17v-22l3-7z" fill="#57AADC"/>
<path transform="translate(1049,766)" d="m0 0 8 6 9 16 2 7v14l-4 10-7 8-12 6-3 1h-9l4-2 12-5 7-8 2-4 3-2 1-7-1-3-1-12-6-11-1-7-4-5z" fill="#58ABDC"/>
<path transform="translate(1132,767)" d="m0 0 4 1 3 5-2 2-1 52h-6l1-3-3-12v-22l1-14z" fill="#3D2F00"/>
<path transform="translate(1112,742)" d="m0 0 2 2 2 23v16l1 37 2 6 16 2 2 4h-13l-12-1z" fill="#2E2A01"/>
<path transform="translate(562,729)" d="m0 0h1v12l-1 9v32l1 16-5-4-3-11-1-6v-22l3-16 3-9z" fill="#413502"/>
<path transform="translate(697,773)" d="m0 0h11l-1 2-1 37-8 1-2-1v-38z" fill="#62B3DE"/>
<path transform="translate(1112,699)" d="m0 0h18l7 1v40h-1l-1-37-9 1-8 1-4 2-1-1-1 125h12v1h-13l-1-60v-72z" fill="#6B6419"/>
<path transform="translate(696,719)" d="m0 0h15v1h-5v34h-10z" fill="#63B4DF"/>
<path transform="translate(1159,778)" d="m0 0h3l1 2 1 37 2 6 7 3h9l2-2v7h-25z" fill="#2E2A01"/>
<path transform="translate(673,700)" d="m0 0h41v3l2 1-2 2-5 1 6 1v2l-14 2-6 4h-2v2h-5l-3 2-1-5 4-2 1-2-4-1 5-2 9-1v-2l3-1-7-2-14 1-4 3-4-1z" fill="#3C2F00"/>
<path transform="translate(670,699)" d="m0 0h33v1l-31 1 1 11-1 19-1 100h14v1h-15l-1-34v-98z" fill="#837B22"/>
<path transform="translate(574,727)" d="m0 0 1 3-3 14-1 10v21l2 19 4 13v2l2 1-1 1h-6l-5-5-4-11-2-13v-32h1l2 41h2l3 10 4 4-3-12-2-16v-24l2-17z" fill="#62B3DE"/>
<path transform="translate(673,785)" d="m0 0h1l2 12-1 3 1 5v19l3 3 20 2 17 1v1l-5 1h-26l-14-1 1-44z" fill="#332F03"/>
<path transform="translate(571,697)" d="m0 0h12l9 3 8 6 4 5-1 2h-2l-1 2-4-1-8-6-4-4-4 2-6 1-1-3-2-1 1-3 3-1z" fill="#3E3201"/>
<path transform="translate(454,699)" d="m0 0h26v1h-25l1 84 3 3 1 3v8l-3 8-6 5h-2l1-5h2l1-10z" fill="#65601A"/>
<path transform="translate(608,717)" d="m0 0 3 3 4 7 4 18 1 10v18l-2 4v8h-3v-30l-2-17-4-16z" fill="#63B4DF"/>
<path transform="translate(714,700)" d="m0 0 10 2 10 5 6 7-1 2-4 1-6-2v-2l-5-1-7-2v-2l2-1-7-2 2-2z" fill="#3F3302"/>
<path transform="translate(1035,697)" d="m0 0 12 1 12 4 6 4-1 5-6 10-7-1-1-2 6-12-13-6-8-2z" fill="#58ABDC"/>
<path transform="translate(808,763)" d="m0 0h44l-1 3-8-1h-25l-5 4v8l10 1 27 1 1-2v3h-43z" fill="#2E2A01"/>
<path transform="translate(693,771)" d="m0 0 1 3-1 2h2v31l-2 1-3-1-1-2v-29l2-4z" fill="#3C2F00"/>
<path transform="translate(692,720)" d="m0 0h3v29h-3-2l-1-2-2-20 2-5z" fill="#3D2F00"/>
<path transform="translate(1027,716)" d="m0 0h9l-8 8-3 2v6l4 8-1 2-2-1v-2h-2l-1-2h-2l-1-3-1 2-2-3v-8l3-5z" fill="#57ABDC"/>
<path transform="translate(742,721)" d="m0 0h1l1 6v12l-2 8-5 9-3-3 1-2-2-2 5-17 3-5z" fill="#443804"/>
<path transform="translate(852,762)" d="m0 0h8l1 1v17l-1 1h-8z" fill="#63B4DF"/>
<path transform="translate(996,741)" d="m0 0h3l3 6 7 11 7 10 2 3-1 4-11-12-7-10-5-9v-2z" fill="#393405"/>
<path transform="translate(614,713)" d="m0 0 3 4 6 18 2 15v29l-3 19-2 7-1-4 3-17v-36l-4-21-4-11z" fill="#63B4DF"/>
<path transform="translate(544,492)" d="m0 0 2 2 1 10 1 5 1 10-6-3-4-5v-8l4-10z" fill="#363204"/>
<path transform="translate(1e3 812)" d="m0 0 7 1 7 3 5 1v3l2 2-4 1-9-1-8-2-2 1-1-6z" fill="#3E3101"/>
<path transform="translate(698,719)" d="m0 0h5l2 4-3 19v10l-3 1-1-5v-12l-1-6v-10z" fill="#56AADC"/>
<path transform="translate(697,774)" d="m0 0h7l-1 26-4 1-2-14z" fill="#56AADC"/>
<path transform="translate(744,773)" d="m0 0h2l6 12 1 4v13l-4 9-5 8-8 7-1-2 8-7 4-8 1-4v-20z" fill="#63B4DF"/>
<path transform="translate(747,785)" d="m0 0h2v20l-3 9-1-2h-2l-2-6 4-18 1-2z" fill="#433704"/>
<path transform="translate(1055,791)" d="m0 0 3 1 1 4v14l-3 8-6-2v-4l5-14z" fill="#443704"/>
<path transform="translate(912,700)" d="m0 0h25l-2 5h-10l-8 2-2 2h-3z" fill="#2E2A01"/>
<path transform="translate(574,727)" d="m0 0 1 3-3 14-1 10v21l1 19-2-1-2-16v-24l2-17z" fill="#63B4DF"/>
<path transform="translate(455,700)" d="m0 0h25l-1 4-15 2-7 1v-2h-2z" fill="#2E2A01"/>
<path transform="translate(1033,709)" d="m0 0h7l5 4 1 5-4 1-6-2-9-1 1-4 5-2z" fill="#3C3603"/>
<path transform="translate(673,700)" d="m0 0h41v2h-19l-14 1-4 3-4-1z" fill="#2E2A01"/>
<path transform="translate(839,765)" d="m0 0h13v11l-4-1h-5l2-3-6-2 4-3z" fill="#3E3101"/>
<path transform="translate(611,803)" d="m0 0h1l-1 9-7 11-8 7 2 2-5 2h-9l3-2 8-4 7-6 6-10z" fill="#63B4DF"/>
<path transform="translate(1138,775)" d="m0 0h7v5l-1-3h-2l-1 2-2-1v6h6v8l-5-1-1 7h-1z" fill="#56AADC"/>
<path transform="translate(555,823)" d="m0 0 9 5 8 3v3l-8-1-10-4-1-3h2z" fill="#433805"/>
<path transform="translate(1006,806)" d="m0 0 4 1 14 7v1h-8l-11-4-3-3z" fill="#61B2DE"/>
<path transform="translate(741,717)" d="m0 0h2l2 5v5h2l1 9-2 6-3 3v-18z" fill="#63B4DF"/>
<path transform="translate(583,697)" d="m0 0h10l10 4 5 5h-5l-6-4-2 1-8-4z" fill="#62B3DE"/>
<path transform="translate(478,811)" d="m0 0 1 4-5 10h-2v2l-5 4 1 2-3 1h-9l4-2 9-6 5-6z" fill="#62B3DE"/>
<path transform="translate(858,763)" d="m0 0h3v17h-5l1-7 1-1z" fill="#59ADDC"/>
<path transform="translate(624,319)" d="m0 0 13 1 7 1-4 2-1 1h-8l-8-3z" fill="#A39A2D"/>
<path transform="translate(1035,697)" d="m0 0 12 1 12 4-4 1-1 2-11-5-8-2z" fill="#60B2DE"/>
<path transform="translate(1142,777)" d="m0 0h2l2 2v12h-1l-1-6-5-1v-6z" fill="#62B3DE"/>
<path transform="translate(716,700)" d="m0 0h9l13 4 3 3-7-1-4-2-14-3z" fill="#62B3DE"/>
<path transform="translate(723,787)" d="m0 0 3 4 1 10-3 3h-2z" fill="#2E2A01"/>
<path transform="translate(1026,779)" d="m0 0 2 1 5 9 1 3-3 1-6-9z" fill="#443704"/>
<path transform="translate(730,827)" d="m0 0 7 1-4 2-11 2h-11v-1l16-3z" fill="#60B2DE"/>
<path transform="translate(542,809)" d="m0 0 7 4 1 4-1 2-5-2-2-4z" fill="#312D02"/>
<path transform="translate(739,759)" d="m0 0 2 1-1 2 5 2 5 4-1 2-2-2-6-2-5-3v-2z" fill="#63B4DF"/>
<path transform="translate(550,276)" d="m0 0v3l-5 6-3 9-2 2 1-9 7-9z" fill="#978E29"/>
<path transform="translate(991,815)" d="m0 0h3v7l1 4-5-3-1-5z" fill="#49420A"/>
<path transform="translate(1056,707)" d="m0 0h2l-2 9-2 4-4-1z" fill="#63B4DF"/>
<path transform="translate(597,826)" d="m0 0m-1 1v3l2 2-5 2h-9l3-2 8-4z" fill="#62B3DE"/>
<path transform="translate(1043,829)" d="m0 0 7 1-2 2-6 2h-9l4-2z" fill="#62B3DE"/>
<path transform="translate(996,805)" d="m0 0 6 3v2l-6 2-2-4z" fill="#47410A"/>
<path transform="translate(420,816)" d="m0 0 3 1-1 4-3 3-2-4h2z" fill="#353103"/>
</svg>
